<?xml version="1.0" standalone="no"?>
<!DOCTYPE svg PUBLIC "-//W3C//DTD SVG 20010904//EN"
 "http://www.w3.org/TR/2001/REC-SVG-20010904/DTD/svg10.dtd">
<svg version="1.0" xmlns="http://www.w3.org/2000/svg"
 width="81.000000pt" height="80.000000pt" viewBox="0 0 81.000000 80.000000"
 preserveAspectRatio="xMidYMid meet">

<g transform="translate(0.000000,80.000000) scale(0.100000,-0.100000)"
fill="#000000" stroke="none">
<path d="M362 752 c-38 -25 -34 -113 12 -262 l23 -75 5 107 c4 87 8 112 24
129 21 23 65 20 95 -7 16 -15 16 -18 -10 -57 -15 -23 -44 -73 -65 -111 l-37
-69 76 71 c105 98 147 106 171 32 13 -41 24 -20 24 46 0 97 -46 145 -101 105
-15 -12 -31 -21 -33 -21 -3 0 -25 21 -48 46 -59 64 -104 86 -136 66z"/>
<path d="M170 663 c-26 -10 -50 -35 -50 -53 0 -10 10 -30 22 -45 l22 -28 -43
-37 c-99 -85 -109 -155 -25 -169 41 -7 111 4 209 34 94 29 94 29 22 104 -54
56 -97 116 -97 135 0 14 47 46 67 46 14 0 21 4 18 10 -6 10 -119 13 -145 3z
m42 -162 c24 -15 72 -43 108 -62 l64 -34 -103 -3 c-113 -3 -151 9 -151 49 0
17 29 79 37 79 1 0 21 -13 45 -29z"/>
<path d="M645 462 c-39 -7 -210 -55 -217 -61 -4 -3 40 -7 98 -8 127 -1 160
-16 150 -66 -3 -17 -14 -40 -24 -50 -37 -43 23 1 66 47 48 52 62 91 39 113
-16 17 -80 31 -112 25z"/>
<path d="M319 314 c-104 -106 -137 -114 -169 -40 l-19 41 0 -77 c-1 -67 2 -80
23 -105 24 -28 24 -28 60 -11 19 10 49 37 66 60 38 52 114 188 108 193 -2 3
-33 -25 -69 -61z"/>
<path d="M400 274 c0 -83 -4 -115 -16 -132 -17 -25 -52 -29 -80 -7 -60 46 -11
-26 53 -77 65 -52 113 -26 113 62 0 40 -51 245 -65 258 -3 3 -5 -44 -5 -104z"/>
<path d="M493 301 c55 -56 77 -86 77 -104 0 -28 -32 -57 -62 -57 -10 0 -18 -4
-18 -10 0 -13 120 -13 154 0 57 21 51 78 -14 134 -31 26 -190 116 -205 116 -5
0 26 -35 68 -79z"/>
</g>
</svg>
